<svg width="256" height="256" viewBox="0 0 256 256" fill="none" xmlns="http://www.w3.org/2000/svg">
  <defs>
    <radialGradient id="aura" cx="50%" cy="38%" r="72%">
      <stop offset="0%" stop-color="#DFFBFF" stop-opacity="0.9"/>
      <stop offset="36%" stop-color="#1CA6D2" stop-opacity="0.5"/>
      <stop offset="100%" stop-color="#03050A"/>
    </radialGradient>
    <linearGradient id="gold" x1="44" y1="30" x2="211" y2="229">
      <stop stop-color="#FFF0BA"/>
      <stop offset="0.52" stop-color="#C79B4B"/>
      <stop offset="1" stop-color="#5D3518"/>
    </linearGradient>
    <linearGradient id="glass" x1="128" y1="55" x2="128" y2="217">
      <stop stop-color="#F6FEFF"/>
      <stop offset="0.42" stop-color="#70DCFF"/>
      <stop offset="1" stop-color="#063D59"/>
    </linearGradient>
    <filter id="blueGlow" x="-40%" y="-40%" width="180%" height="180%" color-interpolation-filters="sRGB">
      <feGaussianBlur stdDeviation="7" result="blur"/>
      <feColorMatrix in="blur" type="matrix" values="0 0 0 0 0.19 0 0 0 0 0.78 0 0 0 0 1 0 0 0 0.75 0"/>
      <feBlend in="SourceGraphic"/>
    </filter>
    <filter id="goldGlow" x="-35%" y="-35%" width="170%" height="170%" color-interpolation-filters="sRGB">
      <feGaussianBlur stdDeviation="4" result="blur"/>
      <feColorMatrix in="blur" type="matrix" values="0 0 0 0 1 0 0 0 0 0.75 0 0 0 0 0.28 0 0 0 0.42 0"/>
      <feBlend in="SourceGraphic"/>
    </filter>
  </defs>

  <rect width="256" height="256" rx="56" fill="#02040A"/>
  <rect x="14" y="14" width="228" height="228" rx="50" fill="url(#aura)" stroke="#8BEAFF" stroke-opacity="0.38" stroke-width="2"/>
  <path d="M128 28L203 77V222H53V77L128 28Z" fill="#07101A" stroke="url(#gold)" stroke-width="7" stroke-linejoin="round"/>
  <path d="M128 39L187 78" stroke="#FFE9A8" stroke-opacity="0.55" stroke-width="3" stroke-linecap="round"/>
  <path d="M128 39L69 78" stroke="#FFE9A8" stroke-opacity="0.55" stroke-width="3" stroke-linecap="round"/>

  <g filter="url(#blueGlow)">
    <path d="M86 214V95C86 71.8 104.8 53 128 53C151.2 53 170 71.8 170 95V214H86Z" fill="url(#glass)" fill-opacity="0.88"/>
    <path d="M128 55V214" stroke="#04212F" stroke-opacity="0.76" stroke-width="5" stroke-linecap="round"/>
    <path d="M92 119H164" stroke="#DDFBFF" stroke-opacity="0.58" stroke-width="4" stroke-linecap="round"/>
    <path d="M104 81L128 57L152 81" stroke="#F0FDFF" stroke-opacity="0.62" stroke-width="4" stroke-linecap="round" stroke-linejoin="round"/>
  </g>

  <path d="M55 220H201" stroke="url(#gold)" stroke-width="9" stroke-linecap="round" filter="url(#goldGlow)"/>
  <circle cx="128" cy="133" r="15" fill="#07101A" stroke="#F4D487" stroke-width="5"/>
  <path d="M128 121V145M116 133H140" stroke="#8EEDFF" stroke-width="4" stroke-linecap="round"/>

  <path d="M78 177H111V191H94V200H114V215H78V177Z" fill="#FFE7A6"/>
  <path d="M142 177H158L169 199L180 177H197L178 215H162L142 177Z" fill="#FFE7A6"/>

  <path d="M176 43L151 92H174L139 151L149 106H127L154 43H176Z" fill="#EAFBFF" filter="url(#blueGlow)"/>
  <path d="M177 43L151 92H174L139 151" stroke="#FFD873" stroke-width="4" stroke-linecap="round" stroke-linejoin="round"/>
</svg>
